#!OML:ASF H:\GeneralSubjects\Female5\Project 1\Capture day 1\Session 1\Female5.ASF
:FULLY-SPECIFIED
:DEGREES
239
root -32.3583 15.6666 3.39025 -173.33 -5.06408 -174.53
lowerback 4.38555 1.49774 0.822047
upperback -10.9103 1.47019 5.30286
thorax -14.6222 0.478305 5.35563
lowerneck -16.2603 2.29759 -3.13482
upperneck 33.8933 0.972198 3.12612
head 14.2811 -0.473841 1.75135
rclavicle -2.16675e-014 1.74931e-014
rhumerus -52.5204 28.3398 -90.2516
rradius 34.8426
rwrist -25.233
rhand -18.9443 -25.7332
rfingers 7.12502
rthumb 7.35889 -55.5853
lclavicle -2.16675e-014 1.74931e-014
lhumerus -49.3724 4.12284 85.9207
lradius 30.9434
lwrist -9.57436
lhand -14.0277 26.5148
lfingers 7.12502
lthumb 12.1024 56.1448
rfemur 0 0 0
rtibia 0
rfoot 0 0
rtoes 0
lfemur -28.0191 -12.7449 -4.27286
ltibia 25.5596
lfoot -21.4205 20.7107
ltoes -61.3273
240
root -32.3565 15.6689 3.38574 -173.292 -5.07189 -174.578
lowerback 4.44637 1.48617 0.779055
upperback -10.9364 1.45057 5.28646
thorax -14.6923 0.474041 5.36787
lowerneck -16.2827 2.33391 -3.07236
upperneck 33.9472 1.02576 3.05141
head 14.3098 -0.456855 1.71918
rclavicle -1.23246e-014 6.75868e-014
rhumerus -52.6855 28.5186 -90.378
rradius 34.8977
rwrist -25.1375
rhand -18.7438 -25.6015
rfingers 7.12502
rthumb 7.55247 -55.4467
lclavicle -1.23246e-014 6.75868e-014
lhumerus -49.3835 4.3839 85.6212
lradius 30.9627
lwrist -10.6657
lhand -13.2611 26.6627
lfingers 7.12502
lthumb 12.8415 56.2477
rfemur 0 0 0
rtibia 0
rfoot 0 0
rtoes 0
lfemur -28.0259 -12.8092 -4.30518
ltibia 25.5103
lfoot -20.982 21.0959
ltoes -61.9595
241
root -32.3549 15.6715 3.38091 -173.243 -5.09714 -174.55
lowerback 4.47328 1.47555 0.847359
upperback -10.9555 1.44171 5.28277
thorax -14.7292 0.460955 5.32862
lowerneck -16.4133 2.36189 -3.04104
upperneck 34.0824 1.06966 2.99121
head 14.4 -0.448801 1.69891
rclavicle -3.18055e-015 2.70347e-014
rhumerus -52.5909 28.4743 -90.3486
rradius 34.6923
rwrist -24.926
rhand -18.489 -25.4298
rfingers 7.12502
rthumb 7.7984 -55.266
lclavicle -3.18055e-015 2.70347e-014
lhumerus -49.3289 4.36654 85.5552
lradius 30.9951
lwrist -11.1632
lhand -13.9636 27.1497
lfingers 7.12502
lthumb 12.1642 56.776
rfemur 0 0 0
rtibia 0
rfoot 0 0
rtoes 0
lfemur -28.0576 -12.7562 -4.28258
ltibia 25.4294
lfoot -20.3123 21.5371
ltoes -62.7065
242
root -32.3548 15.6735 3.37425 -173.226 -5.1021 -174.533
lowerback 4.50381 1.47346 0.941124
upperback -10.9574 1.44983 5.27219
thorax -14.7476 0.453341 5.26273
lowerneck -16.5779 2.40958 -3.00748
upperneck 34.2926 1.13844 2.91387
head 14.5319 -0.437519 1.67593
rclavicle -3.1408e-014 3.33958e-014
rhumerus -52.4183 28.3389 -90.2665
rradius 34.4407
rwrist -24.7195
rhand -18.2714 -25.217
rfingers 7.12502
rthumb 8.00844 -55.0453
lclavicle -3.1408e-014 3.33958e-014
lhumerus -49.2183 4.45127 85.3447
lradius 30.9704
lwrist -12.0551
lhand -15.1014 27.5365
lfingers 7.12502
lthumb 11.067 57.2247
rfemur 0 0 0
rtibia 0
rfoot 0 0
rtoes 0
lfemur -28.0183 -12.6519 -4.32088
ltibia 25.3169
lfoot -20.0222 21.8153
ltoes -63.0768
243
root -32.3566 15.6753 3.36695 -173.22 -5.10649 -174.588
lowerback 4.55919 1.46622 0.977498
upperback -10.948 1.44908 5.24639
thorax -14.7686 0.449384 5.21275
lowerneck -16.7009 2.47656 -2.99925
upperneck 34.4275 1.25057 2.85509
head 14.6181 -0.403006 1.67173
rclavicle -8.94531e-015 -1.03368e-013
rhumerus -52.2949 28.2274 -90.1922
rradius 34.2615
rwrist -24.6027
rhand -18.2103 -25.029
rfingers 7.12502
rthumb 8.06741 -54.855
lclavicle -8.94531e-015 -1.03368e-013
lhumerus -49.1206 4.41644 85.2816
lradius 31.0122
lwrist -12.4129
lhand -15.4518 27.8904
lfingers 7.12502
lthumb 10.7289 57.5965
rfemur 0 0 0
rtibia 0
rfoot 0 0
rtoes 0
lfemur -27.9496 -12.723 -4.40716
ltibia 25.2751
lfoot -20.5384 21.5534
ltoes -62.5561
244
root -32.3593 15.6761 3.36145 -173.179 -5.09604 -174.692
lowerback 4.60553 1.46396 0.951144
upperback -10.9392 1.44802 5.21715
thorax -14.7871 0.452635 5.19428
lowerneck -16.7224 2.57593 -2.93192
upperneck 34.4245 1.44815 2.69206
head 14.6165 -0.329736 1.62693
rclavicle -2.88238e-014 1.74931e-014
rhumerus -52.2188 28.1343 -90.1152
rradius 34.1556
rwrist -24.577
rhand -18.3342 -24.9079
rfingers 7.12502
rthumb 7.9478 -54.7384
lclavicle -2.88238e-014 1.74931e-014
lhumerus -49.0397 4.25373 85.4645
lradius 31.1677
lwrist -11.9129
lhand -21.2463 32.785
lfingers 7.12502
lthumb 5.13649 62.7027
rfemur 0 0 0
rtibia 0
rfoot 0 0
rtoes 0
lfemur -27.9399 -12.8902 -4.48836
ltibia 25.2898
lfoot -21.1032 21.1901
ltoes -61.8629
245
root -32.3622 15.6776 3.35836 -173.13 -5.05309 -174.882
lowerback 4.66762 1.47832 0.851105
upperback -10.9324 1.46275 5.15629
thorax -14.8208 0.471561 5.17893
lowerneck -16.7212 2.66735 -2.9067
upperneck 34.3889 1.63511 2.5743
head 14.5943 -0.258029 1.60604
rclavicle 6.16232e-015 -4.92986e-014
rhumerus -52.3116 28.214 -90.1872
rradius 34.2802
rwrist -24.7511
rhand -18.4872 -25.0348
rfingers 7.12502
rthumb 7.80008 -54.8709
lclavicle 6.16232e-015 -4.92986e-014
lhumerus -48.9615 4.1866 85.6223
lradius 31.3177
lwrist -11.2068
lhand -17.2176 29.3351
lfingers 7.12502
lthumb 9.02538 59.1221
rfemur 0 0 0
rtibia 0
rfoot 0 0
rtoes 0
lfemur -27.9155 -12.8976 -4.72863
ltibia 25.2129
lfoot -21.1665 21.0902
ltoes -61.7974
246
root -32.3633 15.6806 3.35442 -173.077 -5.03908 -175.029
lowerback 4.71043 1.49381 0.816108
upperback -10.9257 1.48415 5.09163
thorax -14.84 0.484967 5.12082
lowerneck -16.8482 2.69642 -2.941
upperneck 34.4056 1.71762 2.55312
head 14.6276 -0.225269 1.62048
rclavicle 1.78906e-015 -3.33958e-014
rhumerus -52.4973 28.341 -90.3071
rradius 34.5482
rwrist -25.0133
rhand -18.5716 -25.3317
rfingers 7.12502
rthumb 7.71861 -55.1709
lclavicle 1.78906e-015 -3.33958e-014
lhumerus -48.9007 3.74023 86.1665
lradius 31.4808
lwrist -9.33216
lhand -15.8856 29.4959
lfingers 7.12502
lthumb 10.3106 59.2231
rfemur 0 0 0
rtibia 0
rfoot 0 0
rtoes 0
lfemur -27.9014 -12.8443 -4.94403
ltibia 25.1224
lfoot -20.7709 21.2923
ltoes -62.2655
247
root -32.3621 15.6833 3.34726 -172.956 -5.07291 -175.18
lowerback 4.64548 1.47981 0.71843
upperback -10.9331 1.44911 5.04045
thorax -14.805 0.476752 5.12262
lowerneck -16.9 2.77528 -2.83268
upperneck 34.3014 1.86562 2.47081
head 14.5888 -0.14525 1.5947
rclavicle -1.13307e-014 4.85035e-014
rhumerus -52.4961 28.2689 -90.2845
rradius 34.5563
rwrist -25.098
rhand -18.7331 -25.3052
rfingers 7.12502
rthumb 7.56274 -55.15
lclavicle -1.13307e-014 4.85035e-014
lhumerus -48.8399 3.57697 86.3143
lradius 31.7147
lwrist -9.19772
lhand -15.6322 32.5947
lfingers 7.12502
lthumb 10.5549 62.3097
rfemur 0 0 0
rtibia 0
rfoot 0 0
rtoes 0
lfemur -27.9712 -13.003 -5.06309
ltibia 25.1227
lfoot -21.1585 21.0658
ltoes -61.8989
